<?xml version="1.0" standalone="no"?>
<!DOCTYPE svg PUBLIC "-//W3C//DTD SVG 20010904//EN"
 "http://www.w3.org/TR/2001/REC-SVG-20010904/DTD/svg10.dtd">
<svg version="1.0" xmlns="http://www.w3.org/2000/svg"
 width="348.000000pt" height="348.000000pt" viewBox="0 0 348.000000 348.000000"
 preserveAspectRatio="xMidYMid meet">
<metadata>
Created by potrace 1.14, written by Peter Selinger 2001-2017
</metadata>
<g transform="translate(0.000000,348.000000) scale(0.100000,-0.100000)"
fill="#000000" stroke="none">
<path d="M1560 3470 c-558 -59 -1055 -387 -1339 -885 -88 -154 -164 -369 -195
-555 -61 -368 -5 -734 165 -1075 181 -363 525 -680 894 -825 487 -190 979
-169 1440 61 168 84 289 172 440 324 152 151 240 272 324 440 294 588 242
1264 -138 1800 -76 108 -245 281 -355 365 -225 171 -491 287 -766 334 -115 20
-354 28 -470 16z m1104 -973 c25 -14 48 -39 63 -67 l23 -44 -2 -586 -3 -587
-29 -37 c-58 -77 -50 -76 -596 -76 l-485 0 -165 -165 c-90 -90 -177 -169 -192
-176 -34 -14 -71 -5 -98 23 -18 20 -20 35 -20 170 l0 148 -137 0 c-76 0 -154
5 -175 10 -39 11 -104 75 -113 112 -3 13 -4 287 -3 609 l3 586 27 35 c55 72
-6 68 978 68 l885 0 39 -23z"/>
<path d="M1279 1841 c-39 -39 -40 -96 -4 -139 32 -39 72 -48 119 -28 43 18 71
71 61 116 -17 80 -118 109 -176 51z"/>
<path d="M1667 1844 c-54 -53 -40 -136 27 -168 47 -22 88 -14 121 26 59 70 13
168 -78 168 -34 0 -50 -6 -70 -26z"/>
<path d="M2064 1855 c-47 -32 -56 -122 -16 -158 32 -29 72 -39 108 -27 114 38
91 200 -28 200 -24 0 -53 -7 -64 -15z"/>
</g>
</svg>
